<?xml version="1.0" encoding="utf-8"?><svg xmlns="http://www.w3.org/2000/svg" xmlns:xlink="http://www.w3.org/1999/xlink" version="1.1" class="page" pageAlignment="none" x="0px" y="0px" width="842px" height="595px" viewBox="0 0 842 595" enable-background="new 0 0 842 595" xml:space="preserve"><defs/><style type="text/css"/><style type="text/css"/><g type="LAYER" name="workspace" id="workspace" locked="true"/><g type="LAYER" name="Layer 01" id="Layer 01"><path transform="matrix(1 0 0 1 273.99413735343387 388.6934673366834)" width="61.792294807370126" height="203.31658291457285" stroke-miterlimit="3" stroke="#000000" fill="#FFFFFF" d="M0,0 L61.792294807370126,-203.31658291457285 "/><path transform="matrix(1 0 0 1 335.786432160804 185.37688442211058)" width="43.85259631490783" height="200.32663316582912" stroke-miterlimit="3" stroke="#000000" fill="#FFFFFF" d="M0,0 L43.85259631490783,200.32663316582912 "/><path transform="matrix(1 0 0 1 379.6390284757118 385.7035175879397)" width="64.78224455611394" height="193.3500837520938" stroke-miterlimit="3" stroke="#000000" fill="#FFFFFF" d="M0,0 L64.78224455611394,-193.3500837520938 "/><path transform="matrix(1 0 0 1 444.42127303182576 192.3534338358459)" width="1.9932998324958362" height="357.79731993299833" stroke-miterlimit="3" stroke="#000000" fill="#FFFFFF" d="M0,0 L-1.9932998324958362,357.79731993299833 "/><path transform="matrix(1 0 0 1 444.42127303182576 192.3534338358459)" width="118.60134003350083" height="109.63149078726971" stroke-miterlimit="3" stroke="#000000" fill="#FFFFFF" d="M0,0 L118.60134003350083,109.63149078726971 "/><path transform="matrix(1 0 0 1 563.0226130653266 301.9849246231156)" width="119.77282222624683" height="100.64956281062632" stroke-miterlimit="3" stroke="#000000" fill="#FFFFFF" d="M0,0 L-119.77282222624683,100.64956281062632 "/></g></svg>